<svg width="62" height="40" viewBox="172.0000 16.0000 62.0000 40.0000" fill="none" xmlns="http://www.w3.org/2000/svg">
<g transform="translate(-172.0000,-16.0000)">
<rect xmlns="http://www.w3.org/2000/svg" x="172" y="16" width="62" height="40" rx="5" fill="#016FD0" />
<g xmlns="http://www.w3.org/2000/svg" id="Amex">
<path id="Vector_11" d="M183.89 47.3653V37.5266H194.234L195.343 38.9837L196.49 37.5266H234.034V46.6868C234.034 46.6868 233.052 47.3555 231.916 47.3653H211.127L209.876 45.8144V47.3653H205.776V44.7179C205.776 44.7179 205.216 45.0874 204.005 45.0874H202.61V47.3653H196.402L195.294 45.8771L194.169 47.3653L183.89 47.3653ZM171.812 30.1113L174.144 24.6346H178.178L179.501 27.7025V24.6346H184.516L185.304 26.852L186.068 24.6346H208.577V25.7494C208.577 25.7494 209.76 24.6346 211.705 24.6346L219.008 24.6604L220.309 27.688V24.6346H224.506L225.66 26.3738V24.6346H229.895V34.4733H225.66L224.554 32.7285V34.4732H218.388L217.768 32.9223H216.111L215.501 34.4732H211.32C209.647 34.4732 208.577 33.3813 208.577 33.3813V34.4732H202.273L201.022 32.9224V34.4733H177.58L176.961 32.9224H175.308L174.693 34.4732H171.812V30.1113Z" fill="white" />
<path id="Vector_12" d="M174.969 25.8473L171.823 33.2142H173.871L174.452 31.739H177.827L178.404 33.2142H180.497L177.354 25.8473H174.969ZM176.133 27.5618L177.162 30.1396H175.102L176.133 27.5618ZM180.714 33.2129V25.8461L183.624 25.8569L185.317 30.6066L186.97 25.8461H189.857V33.2129H188.028V27.7847L186.09 33.2129H184.486L182.542 27.7847V33.2129H180.714ZM191.108 33.2129V25.8461H197.075V27.4939H192.956V28.754H196.979V30.305H192.956V31.6136H197.075V33.2129H191.108ZM198.134 25.8473V33.2142H199.963V30.597H200.733L202.925 33.2142H205.16L202.754 30.5C203.741 30.4161 204.76 29.5625 204.76 28.2373C204.76 26.6871 203.552 25.8473 202.204 25.8473H198.134ZM199.963 27.4952H202.053C202.555 27.4952 202.919 27.8902 202.919 28.2706C202.919 28.76 202.447 29.0461 202.08 29.0461H199.963V27.4952ZM207.374 33.2129H205.507V25.8461H207.374V33.2129ZM211.801 33.2129H211.398C209.448 33.2129 208.264 31.6656 208.264 29.5598C208.264 27.4019 209.435 25.8461 211.897 25.8461H213.918V27.5908H211.823C210.824 27.5908 210.117 28.3766 210.117 29.5779C210.117 31.0046 210.925 31.6038 212.09 31.6038H212.571L211.801 33.2129ZM215.78 25.8473L212.634 33.2142H214.682L215.263 31.739H218.637L219.215 33.2142H221.308L218.165 25.8473H215.78ZM216.944 27.5618L217.973 30.1396H215.912L216.944 27.5618ZM221.522 33.2129V25.8461H223.846L226.815 30.4746V25.8461H228.644V33.2129H226.394L223.35 28.4633V33.2129H221.522ZM185.141 46.1049V38.738H191.108V40.3859H186.989V41.646H191.012V43.1969H186.989V44.5055H191.108V46.1049H185.141ZM214.38 46.1049V38.738H220.347V40.3859H216.228V41.646H220.232V43.1969H216.228V44.5055H220.347V46.1049H214.38ZM191.34 46.1049L194.245 42.4669L191.271 38.738H193.575L195.346 41.0432L197.124 38.738H199.337L196.402 42.4214L199.313 46.1049H197.009L195.289 43.8361L193.611 46.1049H191.34ZM199.53 38.7393V46.1061H201.406V43.7798H203.331C204.96 43.7798 206.195 42.9095 206.195 41.2171C206.195 39.8151 205.226 38.7393 203.569 38.7393H199.53ZM201.406 40.4053H203.434C203.96 40.4053 204.336 40.7301 204.336 41.2534C204.336 41.7451 203.962 42.1016 203.428 42.1016H201.406V40.4053ZM206.989 38.738V46.1049H208.817V43.4877H209.587L211.78 46.1049H214.014L211.608 43.3908C212.596 43.3069 213.614 42.4532 213.614 41.128C213.614 39.5778 212.406 38.738 211.058 38.738H206.989ZM208.817 40.3859H210.908C211.409 40.3859 211.774 40.7809 211.774 41.1614C211.774 41.6507 211.301 41.9368 210.935 41.9368H208.817V40.3859ZM221.194 46.1049V44.5055H224.854C225.396 44.5055 225.63 44.2108 225.63 43.8875C225.63 43.5778 225.396 43.2648 224.854 43.2648H223.2C221.763 43.2648 220.962 42.3827 220.962 41.0584C220.962 39.8771 221.695 38.738 223.832 38.738H227.393L226.623 40.3956H223.543C222.954 40.3956 222.773 40.7067 222.773 41.0039C222.773 41.3092 222.997 41.646 223.446 41.646H225.179C226.781 41.646 227.477 42.5615 227.477 43.7603C227.477 45.0493 226.702 46.1049 225.092 46.1049H221.194ZM227.906 46.1049V44.5055H231.566C232.107 44.5055 232.342 44.2108 232.342 43.8875C232.342 43.5778 232.108 43.2648 231.566 43.2648H229.912C228.474 43.2648 227.674 42.3827 227.674 41.0584C227.674 39.8771 228.407 38.738 230.543 38.738H234.104L233.334 40.3956H230.254C229.666 40.3956 229.484 40.7067 229.484 41.0039C229.484 41.3092 229.708 41.646 230.158 41.646H231.89C233.493 41.646 234.188 42.5615 234.188 43.7603C234.188 45.0493 233.413 46.1049 231.803 46.1049H227.906Z" fill="#016FD0" />
</g>

</g>
</svg>