<svg width="62" height="40" viewBox="94.0000 16.0000 62.0000 40.0000" fill="none" xmlns="http://www.w3.org/2000/svg">
<g transform="translate(-94.0000,-16.0000)">
<rect xmlns="http://www.w3.org/2000/svg" x="94" y="16" width="62" height="40" rx="5" fill="#34495E" />
<g xmlns="http://www.w3.org/2000/svg" id="Group">
<path id="Vector_3" d="M130.496 35.9786C130.501 34.947 130.114 33.9138 129.335 33.1352C128.555 32.3551 127.52 31.9686 126.486 31.9748C126.481 31.9748 126.476 31.9745 126.471 31.9745C124.226 31.9745 122.445 33.7547 122.445 36.0002C122.445 38.2236 124.248 40.0257 126.471 40.0257C128.716 40.0257 130.497 38.2452 130.497 36.0002C130.497 35.9929 130.496 35.9859 130.496 35.9786Z" fill="#F26E21" />
<path id="Vector_4" d="M121.697 37.7032C121.095 38.3055 120.54 38.5409 119.942 38.5536C118.485 38.5406 117.413 37.4614 117.413 35.9228C117.413 35.1483 117.706 34.5135 118.171 33.9712C118.607 33.5576 119.168 33.2904 119.813 33.2904C120.51 33.2904 121.052 33.5226 121.671 34.142V32.3614C121.052 32.0519 120.51 31.897 119.813 31.897C118.829 31.9673 117.901 32.3649 117.189 32.9893C116.984 33.1739 116.788 33.3776 116.621 33.6108C116.101 34.2847 115.787 35.1098 115.787 36.0005C115.787 38.2453 117.568 39.9484 119.813 39.9484C119.824 39.9484 119.835 39.9475 119.845 39.9474C119.861 39.9476 119.875 39.9484 119.89 39.9484C120.51 39.9484 121.052 39.7939 121.749 39.4842L121.697 37.7032C121.671 37.7293 121.723 37.7536 121.697 37.7784V37.7032Z" fill="#E7E8E3" />
<path id="Vector_5" d="M135.579 33.0057L133.826 37.3163L131.813 32.2063H130.188L133.361 40.0256H134.213L137.542 32.2063H135.917L135.579 33.0057Z" fill="#E7E8E3" />
<path id="Vector_6" d="M138.162 35.6128V39.7937H142.342H142.42V38.5546H141.104H139.71V37.1614V36.4648H142.342V35.1483H139.71V33.5226H142.42V32.2063H138.162V35.6128Z" fill="#E7E8E3" />
<path id="Vector_7" d="M103.168 32.2063H101V39.7937H103.168C104.329 39.7937 105.181 39.4838 105.877 38.9418C106.729 38.2451 107.271 37.1615 107.271 36.0004C107.271 33.7546 105.645 32.2063 103.168 32.2063ZM104.949 37.9357C104.484 38.3226 103.865 38.5546 102.936 38.5546H102.471V33.5225H102.858C103.787 33.5225 104.407 33.6773 104.871 34.1417C105.413 34.6059 105.723 35.3031 105.723 36.0001C105.8 36.6968 105.491 37.4707 104.949 37.9357Z" fill="#E7E8E3" />
<path id="Vector_8" d="M109.439 32.2056H107.968V39.7929H109.439V32.2056Z" fill="#E7E8E3" />
<path id="Vector_9" d="M113.155 35.1483C112.226 34.8386 111.994 34.6062 111.994 34.2193C111.994 33.7547 112.458 33.3677 113.078 33.3677C113.542 33.3677 113.929 33.5226 114.316 33.9872L115.091 32.9808C114.471 32.4386 113.697 32.1293 112.846 32.1293C111.529 32.1293 110.445 33.0584 110.445 34.2967C110.445 35.3808 110.91 35.8452 112.304 36.3872C112.923 36.6191 113.155 36.6968 113.31 36.8516C113.619 37.0062 113.775 37.3162 113.775 37.6255C113.775 38.245 113.31 38.7096 112.613 38.7096C111.916 38.7096 111.297 38.3226 110.987 37.7031L110.058 38.6322C110.755 39.6386 111.607 40.103 112.691 40.103C114.239 40.103 115.322 39.0966 115.322 37.6255C115.323 36.3097 114.858 35.7677 113.155 35.1483Z" fill="#E7E8E3" />
<path id="Vector_10" d="M146.6 36.6191C147.761 36.3872 148.381 35.6127 148.381 34.4517C148.381 33.0584 147.374 32.2063 145.671 32.2063H143.426V39.7937H144.897V36.774H145.13L147.219 39.7937H149L146.6 36.6191ZM145.361 35.69H144.897V33.3677H145.361C146.29 33.3677 146.833 33.7546 146.833 34.5293C146.833 35.3032 146.291 35.69 145.361 35.69Z" fill="#E7E8E3" />
</g>

</g>
</svg>