<svg width="62" height="40" viewBox="250.0000 16.0000 62.0000 40.0000" fill="none" xmlns="http://www.w3.org/2000/svg">
<g transform="translate(-250.0000,-16.0000)">
<rect xmlns="http://www.w3.org/2000/svg" x="250" y="16" width="62" height="40" rx="5" fill="#F7F8FA" />
<g xmlns="http://www.w3.org/2000/svg" id="Group_2">
<path id="Vector_13" d="M286.699 25.7659H275.311V46.2281H286.699V25.7659Z" fill="#FF5F00" />
<path id="Vector_14" d="M276.034 35.997C276.034 32.0202 277.878 28.2242 280.987 25.7659C275.347 21.3191 267.141 22.2952 262.694 27.9712C258.283 33.6109 259.259 41.7814 264.935 46.2281C269.671 49.9518 276.287 49.9518 281.023 46.2281C277.878 43.7698 276.034 39.9738 276.034 35.997Z" fill="#EB001B" />
<path id="Vector_15" d="M302.064 35.997C302.064 43.1913 296.243 49.0119 289.049 49.0119C286.121 49.0119 283.301 48.0358 281.023 46.2281C286.663 41.7814 287.639 33.6109 283.192 27.935C282.542 27.1397 281.819 26.3805 281.023 25.7659C286.663 21.3191 294.87 22.2952 299.28 27.9712C301.088 30.2488 302.064 33.0687 302.064 35.997Z" fill="#F79E1B" />
</g>

</g>
</svg>