<svg width="40" height="40" viewBox="18.0000 84.0000 40.0000 40.0000" fill="none" xmlns="http://www.w3.org/2000/svg">
<path xmlns="http://www.w3.org/2000/svg" id="Facebook_2" d="M38.0498 84C49.0955 84 58.0498 92.9543 58.0498 104C58.0498 115.046 49.0955 124 38.0498 124C27.0041 124 18.0498 115.046 18.0498 104C18.0498 92.9543 27.0041 84 38.0498 84ZM40.8809 93C37.7391 93.0001 35.6007 94.9085 35.6006 98.4072V101.421H32.0498V105.512H35.6006V116H39.834V105.512H43.375L43.9082 101.421H39.8428V98.8145C39.8428 97.6305 40.1711 96.8263 41.875 96.8262H44.0498V93.1592C43.677 93.1062 42.3809 93 40.8809 93Z" fill="white" />

</svg>