<svg width="40" height="40" viewBox="78.0000 84.0000 40.0000 40.0000" fill="none" xmlns="http://www.w3.org/2000/svg">
<path xmlns="http://www.w3.org/2000/svg" id="Instagram_2" d="M98.0498 84C109.095 84 118.05 92.9543 118.05 104C118.05 115.046 109.095 124 98.0498 124C87.0041 124 78.0498 115.046 78.0498 104C78.0498 92.9543 87.0041 84 98.0498 84ZM98.0605 92C94.8011 92 94.3995 92.0106 93.1143 92.0723L92.6436 92.1016C91.6118 92.1844 90.8591 92.3661 90.1934 92.627C89.4017 92.9354 88.7337 93.3473 88.0654 94.0156C87.3971 94.6839 86.9852 95.3519 86.6768 96.1436C86.3786 96.9044 86.1735 97.7788 86.1221 99.0537C86.0604 100.329 86.0498 100.74 86.0498 104C86.0498 107.26 86.0604 107.661 86.1221 108.946C86.1838 110.221 86.3786 111.096 86.6768 111.856C86.9852 112.648 87.3971 113.316 88.0654 113.984C88.7337 114.653 89.4017 115.065 90.1934 115.373C90.9542 115.671 91.8286 115.876 93.1035 115.928C94.3786 115.989 94.7902 116 98.0498 116C101.309 116 101.711 115.989 102.996 115.928C104.271 115.866 105.145 115.671 105.906 115.373C106.698 115.065 107.366 114.653 108.034 113.984C108.702 113.316 109.114 112.648 109.423 111.856C109.721 111.096 109.926 110.221 109.978 108.946C110.039 107.671 110.05 107.26 110.05 104C110.05 100.74 110.039 100.339 109.978 99.0537C109.916 97.7788 109.721 96.9044 109.423 96.1436C109.114 95.3519 108.702 94.6839 108.034 94.0156C107.366 93.3472 106.698 92.9354 105.916 92.627C105.155 92.3288 104.281 92.1237 103.006 92.0723C101.731 92.0106 101.32 92 98.0605 92ZM98.0498 94.1592C101.247 94.1592 101.628 94.1698 102.893 94.2314C104.065 94.2828 104.692 94.4781 105.124 94.6426C105.679 94.8585 106.08 95.1157 106.502 95.5371C106.923 95.9586 107.181 96.3599 107.396 96.915C107.561 97.3366 107.757 97.9743 107.809 99.1465C107.87 100.411 107.88 100.792 107.88 103.989C107.88 107.187 107.87 107.568 107.809 108.833C107.757 110.005 107.561 110.633 107.396 111.064C107.181 111.62 106.923 112.021 106.502 112.442C106.08 112.864 105.679 113.121 105.124 113.337C104.702 113.501 104.065 113.697 102.893 113.748C101.628 113.81 101.247 113.82 98.0498 113.82C94.8522 113.82 94.4715 113.81 93.207 113.748C92.0351 113.697 91.4075 113.501 90.9756 113.337C90.4204 113.121 90.0192 112.864 89.5977 112.442C89.1761 112.021 88.919 111.62 88.7031 111.064C88.5386 110.643 88.3424 110.005 88.291 108.833C88.2293 107.568 88.2197 107.187 88.2197 103.989C88.2197 100.792 88.2293 100.411 88.291 99.1465C88.3424 97.9743 88.5386 97.3469 88.7031 96.915C88.919 96.3599 89.1761 95.9586 89.5977 95.5371C90.0192 95.1157 90.4204 94.8585 90.9756 94.6426C91.3972 94.4781 92.0351 94.2828 93.207 94.2314C94.4715 94.1698 94.8522 94.1592 98.0498 94.1592ZM98.0605 97.8301C94.6571 97.8301 91.9006 100.586 91.9004 103.989C91.9004 107.393 94.6569 110.149 98.0605 110.149C101.464 110.149 104.22 107.393 104.22 103.989C104.219 100.586 101.464 97.8303 98.0605 97.8301ZM98.0605 99.9893C100.271 99.9895 102.06 101.779 102.061 103.989C102.061 106.2 100.271 107.989 98.0605 107.989C95.8498 107.989 94.0605 106.2 94.0605 103.989C94.0608 101.779 95.8499 99.9893 98.0605 99.9893ZM104.456 96.1436C103.664 96.1436 103.017 96.7922 103.017 97.584C103.017 98.3756 103.664 99.0234 104.456 99.0234C105.248 99.0234 105.895 98.3755 105.896 97.584C105.896 96.7922 105.248 96.1436 104.456 96.1436Z" fill="white" />

</svg>