<svg width="40" height="40" viewBox="264.0000 84.0000 40.0000 40.0000" fill="none" xmlns="http://www.w3.org/2000/svg">
<path xmlns="http://www.w3.org/2000/svg" id="X_2" d="M284.05 84C295.096 84 304.05 92.9543 304.05 104C304.05 115.046 295.096 124 284.05 124C273.004 124 264.05 115.046 264.05 104C264.05 92.9543 273.004 84 284.05 84ZM273.35 100.1V114.82H278.24V100.1H273.35ZM290.281 99.7402C288.391 99.7402 286.91 100.56 285.85 102.19V102.23H285.83L285.85 102.19V100.1H280.96C280.99 100.57 281 102.03 281 104.48C281 106.93 280.99 110.38 280.96 114.81L280.95 114.82H285.84V106.6C285.84 106.09 285.9 105.69 286.02 105.41C286.23 104.91 286.54 104.49 286.96 104.14C287.38 103.79 287.9 103.62 288.54 103.62C290.19 103.62 291.01 104.73 291.01 106.95V114.82H295.9V106.38C295.9 104.21 295.39 102.56 294.36 101.43C293.33 100.3 291.97 99.7403 290.281 99.7402ZM275.83 93C275.01 93 274.34 93.2399 273.83 93.7197C273.32 94.1997 273.06 94.81 273.06 95.54L273.05 95.5303C273.05 96.2701 273.3 96.8704 273.8 97.3604C274.3 97.8502 274.95 98.0898 275.76 98.0898H275.781C276.62 98.0898 277.3 97.8401 277.81 97.3604C278.31 96.8904 278.56 96.3096 278.56 95.5996C278.56 94.8298 278.3 94.1899 277.79 93.71C277.29 93.23 276.65 93.0001 275.83 93Z" fill="white" />

</svg>