<svg width="40" height="40" viewBox="200.0000 84.0000 40.0000 40.0000" fill="none" xmlns="http://www.w3.org/2000/svg">
<path xmlns="http://www.w3.org/2000/svg" id="X" d="M220.05 84C231.095 84 240.05 92.9543 240.05 104C240.05 115.046 231.095 124 220.05 124C209.004 124 200.05 115.046 200.05 104C200.05 92.9543 209.004 84 220.05 84ZM212.337 94.6875C210.466 94.6747 208.922 94.6786 208.911 94.6914C208.902 94.7042 209.662 95.6491 210.596 96.7861C211.529 97.9233 213.515 100.343 215.007 102.16L217.719 105.465L217.545 105.645C217.446 105.743 215.452 107.705 213.115 110.005C210.789 112.299 208.877 114.191 208.855 114.229C208.846 114.25 209.254 114.267 209.841 114.263L210.84 114.259L211.168 113.93C211.351 113.75 213.05 112.078 214.945 110.21C216.841 108.342 218.446 106.76 218.512 106.691L218.629 106.567L219.567 107.714C220.084 108.343 221.505 110.078 222.725 111.565L224.949 114.268H228.351C231.179 114.268 231.747 114.259 231.729 114.212C231.714 114.178 230.851 113.117 229.81 111.848C228.768 110.582 227.577 109.129 227.164 108.624C226.746 108.12 225.521 106.619 224.433 105.298C223.344 103.973 222.453 102.87 222.453 102.853C222.483 102.793 228.211 97.1279 230.162 95.2305L230.72 94.6875H229.692L228.67 94.6914L227.474 95.8711C226.817 96.5209 225.207 98.1117 223.894 99.3984L221.515 101.741L218.629 98.2275L215.738 94.709L212.337 94.6875ZM216.973 98.4795C218.085 99.839 219.802 101.93 220.787 103.131C221.773 104.328 223.959 106.996 225.648 109.052C227.334 111.108 228.73 112.811 228.759 112.848C228.787 112.886 228.454 112.899 227.238 112.899H225.686L222.607 109.146C215.504 100.497 211.919 96.1276 211.877 96.0635C211.85 96.0252 212.17 96.0127 213.393 96.0127H214.945L216.973 98.4795Z" fill="white" />

</svg>