<svg width="40" height="40" viewBox="137.0000 84.0000 40.0000 40.0000" fill="none" xmlns="http://www.w3.org/2000/svg">
<path xmlns="http://www.w3.org/2000/svg" id="Youtube_2" d="M157.05 84C168.095 84 177.05 92.9543 177.05 104C177.05 115.046 168.095 124 157.05 124C146.004 124 137.05 115.046 137.05 104C137.05 92.9543 146.004 84 157.05 84ZM165.619 95.1465C159.653 94.9471 153.632 94.9033 147.654 95.3242C145.88 95.435 144.736 96.5095 144.442 98.293C143.931 101.483 143.822 104.762 144.094 107.975C144.29 110.268 144.475 112.993 147.153 113.547C148.906 113.912 150.703 113.846 152.499 113.879L158.041 113.979H158.052C158.052 113.979 158.073 113.979 158.073 113.99C161.154 114.046 164.16 113.868 167.241 113.636C169.702 113.47 170.279 111.652 170.584 109.492C170.965 106.889 171.041 104.242 170.845 101.616C170.649 99.013 170.572 95.9217 167.502 95.3789C166.882 95.2682 166.25 95.1687 165.619 95.1465ZM154.786 100.441C157.083 101.793 159.359 103.122 161.678 104.474C159.38 105.825 157.105 107.155 154.786 108.507V100.441Z" fill="white" />

</svg>