<svg width="62" height="40" viewBox="16.0000 16.0000 62.0000 40.0000" fill="none" xmlns="http://www.w3.org/2000/svg">
<g transform="translate(-16.0000,-16.0000)">
<rect xmlns="http://www.w3.org/2000/svg" x="16" y="16" width="62" height="40" rx="5" fill="#F7F8FA" />
<g xmlns="http://www.w3.org/2000/svg" id="Visa">
<path id="Vector" d="M40.2982 42.8349L42.6077 29.2823H46.3017L43.9905 42.8349H40.2982ZM57.3366 29.5745C56.6049 29.2999 55.458 29.0053 54.0259 29.0053C50.3757 29.0053 47.8046 30.8434 47.7826 33.4778C47.7621 35.4252 49.6183 36.5117 51.0194 37.1599C52.4574 37.8244 52.9407 38.2479 52.9338 38.841C52.9246 39.7495 51.7855 40.1644 50.7237 40.1644C49.2453 40.1644 48.4598 39.959 47.2466 39.4532L46.7704 39.2378L46.2521 42.2716C47.1149 42.6501 48.7103 42.9777 50.367 42.9947C54.2502 42.9947 56.771 41.1776 56.7996 38.3642C56.8134 36.8225 55.8293 35.6493 53.698 34.682C52.4069 34.055 51.6161 33.6367 51.6245 33.0018C51.6245 32.4385 52.2938 31.8361 53.7402 31.8361C54.948 31.8173 55.8232 32.0808 56.505 32.3553L56.836 32.5117L57.3366 29.5745ZM66.8427 29.2821H63.9883C63.1041 29.2821 62.4422 29.5235 62.054 30.406L56.5678 42.826H60.4469C60.4469 42.826 61.0809 41.1561 61.2244 40.7894C61.6483 40.7894 65.4167 40.7952 65.9553 40.7952C66.0658 41.2697 66.4048 42.826 66.4048 42.826H69.8325L66.8427 29.2817V29.2821ZM62.3138 38.0336C62.6194 37.2527 63.7857 34.245 63.7857 34.245C63.7639 34.2811 64.089 33.4603 64.2754 32.9515L64.525 34.12C64.525 34.12 65.2324 37.355 65.3802 38.0334H62.3138V38.0336ZM37.1623 29.2821L33.5457 38.5244L33.1604 36.6463C32.4871 34.4811 30.3895 32.1354 28.0444 30.961L31.3514 42.8133L35.2598 42.809L41.0755 29.282L37.1623 29.2819" fill="#0E4595" />
<path id="Vector_2" d="M30.1714 29.2816H24.2147L24.1675 29.5636C28.8017 30.6854 31.868 33.3964 33.1412 36.6542L31.8459 30.4262C31.6224 29.568 30.9738 29.3119 30.1715 29.282" fill="#F2AE14" />
</g>

</g>
</svg>